<?xml version="1.0" encoding="UTF-8"?>
<!DOCTYPE svg PUBLIC "-//W3C//DTD SVG 1.1//EN" "http://www.w3.org/Graphics/SVG/1.1/DTD/svg11.dtd">
<svg xmlns="http://www.w3.org/2000/svg" version="1.1" width="508px" height="491px" style="shape-rendering:geometricPrecision; text-rendering:geometricPrecision; image-rendering:optimizeQuality; fill-rule:evenodd; clip-rule:evenodd" xmlns:xlink="http://www.w3.org/1999/xlink">
<g><path style="opacity:0.992" fill="#923739" d="M 271.5,55.5 C 270.543,52.8501 268.876,52.1834 266.5,53.5C 263.375,41.2921 259.542,29.2921 255,17.5C 249.346,34.4468 243.846,51.4468 238.5,68.5C 238.624,69.1067 238.957,69.44 239.5,69.5C 238.081,70.4511 236.415,70.7845 234.5,70.5C 240.33,48.0158 247.33,26.0158 255.5,4.5C 261.24,21.3855 266.573,38.3855 271.5,55.5 Z"/></g>
<g><path style="opacity:1" fill="#d63e43" d="M 271.5,55.5 C 275.472,59.8073 279.472,64.1407 283.5,68.5C 280.336,66.9469 277.002,65.9469 273.5,65.5C 273.5,66.8333 273.5,68.1667 273.5,69.5C 280.137,68.2818 281.803,70.4485 278.5,76C 277.552,76.4828 276.552,76.6495 275.5,76.5C 274.833,74.5 274.167,72.5 273.5,70.5C 271.208,70.2436 269.041,70.5769 267,71.5C 264.659,68.7199 261.659,67.0533 258,66.5C 253.828,68.6761 249.661,70.8427 245.5,73C 257.239,74.3377 268.572,76.8377 279.5,80.5C 279.395,84.2583 280.395,87.5917 282.5,90.5C 282.5,92.1667 282.5,93.8333 282.5,95.5C 280.491,91.4524 278.991,87.1191 278,82.5C 276.391,81.8534 274.891,81.02 273.5,80C 260.963,78.356 248.63,75.856 236.5,72.5C 235.824,73.6016 235.158,74.6016 234.5,75.5C 234.5,73.8333 234.5,72.1667 234.5,70.5C 236.415,70.7845 238.081,70.4511 239.5,69.5C 247.997,63.4143 256.997,58.0809 266.5,53.5C 268.876,52.1834 270.543,52.8501 271.5,55.5 Z"/></g>
<g><path style="opacity:1" fill="#da383f" d="M 283.5,68.5 C 284.031,70.5441 285.198,72.2107 287,73.5C 287.948,79.3832 285.448,81.7166 279.5,80.5C 268.572,76.8377 257.239,74.3377 245.5,73C 249.661,70.8427 253.828,68.6761 258,66.5C 261.659,67.0533 264.659,68.7199 267,71.5C 269.041,70.5769 271.208,70.2436 273.5,70.5C 274.167,72.5 274.833,74.5 275.5,76.5C 276.552,76.6495 277.552,76.4828 278.5,76C 281.803,70.4485 280.137,68.2818 273.5,69.5C 273.5,68.1667 273.5,66.8333 273.5,65.5C 277.002,65.9469 280.336,66.9469 283.5,68.5 Z"/></g>
<g><path style="opacity:1" fill="#fabdbc" d="M 291.5,74.5 C 293.735,74.2053 295.735,74.5386 297.5,75.5C 295.097,75.448 292.764,75.7814 290.5,76.5C 290.833,75.8333 291.167,75.1667 291.5,74.5 Z"/></g>
<g><path style="opacity:1" fill="#b13b3f" d="M 283.5,68.5 C 285.296,69.7927 286.963,71.2927 288.5,73C 289.448,73.4828 290.448,73.6495 291.5,73.5C 291.5,73.8333 291.5,74.1667 291.5,74.5C 291.167,75.1667 290.833,75.8333 290.5,76.5C 288.738,77.2623 287.738,78.5956 287.5,80.5C 286.833,82.5 286.167,84.5 285.5,86.5C 284.962,84.8828 284.629,83.2161 284.5,81.5C 283.022,81.238 281.689,81.5713 280.5,82.5C 281.785,85.0205 282.452,87.6872 282.5,90.5C 280.395,87.5917 279.395,84.2583 279.5,80.5C 285.448,81.7166 287.948,79.3832 287,73.5C 285.198,72.2107 284.031,70.5441 283.5,68.5 Z"/></g>
<g><path style="opacity:0.855" fill="#9c3f41" d="M 234.5,70.5 C 234.5,72.1667 234.5,73.8333 234.5,75.5C 233.167,77.8333 231.833,80.1667 230.5,82.5C 231.261,78.2157 232.595,74.2157 234.5,70.5 Z"/></g>
<g><path style="opacity:1" fill="#d8393f" d="M 282.5,95.5 C 284.53,99.9164 286.197,104.583 287.5,109.5C 265.844,110.5 244.177,110.833 222.5,110.5C 224.445,105.998 225.779,101.332 226.5,96.5C 226.5,96.1667 226.5,95.8333 226.5,95.5C 227.474,94.365 228.641,93.365 230,92.5C 231.404,86.7915 232.904,81.1249 234.5,75.5C 235.158,74.6016 235.824,73.6016 236.5,72.5C 248.63,75.856 260.963,78.356 273.5,80C 274.891,81.02 276.391,81.8534 278,82.5C 278.991,87.1191 280.491,91.4524 282.5,95.5 Z"/></g>
<g><path style="opacity:1" fill="#fdf4f5" d="M 297.5,75.5 C 303.192,77.0017 305.025,80.6684 303,86.5C 294.012,94.4235 288.846,92.4235 287.5,80.5C 287.738,78.5956 288.738,77.2623 290.5,76.5C 292.764,75.7814 295.097,75.448 297.5,75.5 Z"/></g>
<g><path style="opacity:1" fill="#bb4a4e" d="M 234.5,75.5 C 232.904,81.1249 231.404,86.7915 230,92.5C 228.641,93.365 227.474,94.365 226.5,95.5C 227.388,90.9281 228.721,86.5948 230.5,82.5C 231.833,80.1667 233.167,77.8333 234.5,75.5 Z"/></g>
<g><path style="opacity:0.855" fill="#a4514f" d="M 285.5,86.5 C 286.167,84.5 286.833,82.5 287.5,80.5C 288.846,92.4235 294.012,94.4235 303,86.5C 305.025,80.6684 303.192,77.0017 297.5,75.5C 295.735,74.5386 293.735,74.2053 291.5,74.5C 291.5,74.1667 291.5,73.8333 291.5,73.5C 302.717,71.8814 307.217,76.548 305,87.5C 300.66,93.864 295.16,95.0306 288.5,91C 287.117,89.7292 286.117,88.2292 285.5,86.5 Z"/></g>
<g><path style="opacity:1" fill="#b04244" d="M 282.5,90.5 C 285.342,97.6868 288.009,105.02 290.5,112.5C 289.833,112.833 289.167,113.167 288.5,113.5C 272.868,111.515 256.868,110.849 240.5,111.5C 233.833,111.5 227.167,111.5 220.5,111.5C 220.842,110.662 221.508,110.328 222.5,110.5C 244.177,110.833 265.844,110.5 287.5,109.5C 286.197,104.583 284.53,99.9164 282.5,95.5C 282.5,93.8333 282.5,92.1667 282.5,90.5 Z"/></g>
<g><path style="opacity:1" fill="#f7bbbd" d="M 240.5,112.5 C 240.5,112.167 240.5,111.833 240.5,111.5C 256.868,110.849 272.868,111.515 288.5,113.5C 288.167,113.5 287.833,113.5 287.5,113.5C 272.009,112.504 256.342,112.17 240.5,112.5 Z"/></g>
<g><path style="opacity:1" fill="#fff5f6" d="M 240.5,112.5 C 256.342,112.17 272.009,112.504 287.5,113.5C 265.525,115.489 243.192,116.156 220.5,115.5C 220.5,114.5 220.5,113.5 220.5,112.5C 227.167,112.5 233.833,112.5 240.5,112.5 Z"/></g>
<g><path style="opacity:1" fill="#fee0e1" d="M 220.5,111.5 C 227.167,111.5 233.833,111.5 240.5,111.5C 240.5,111.833 240.5,112.167 240.5,112.5C 233.833,112.5 227.167,112.5 220.5,112.5C 220.5,113.5 220.5,114.5 220.5,115.5C 243.192,116.156 265.525,115.489 287.5,113.5C 287.833,113.5 288.167,113.5 288.5,113.5C 288.414,114.496 288.748,115.329 289.5,116C 278.172,116.5 266.838,116.667 255.5,116.5C 243.5,116.5 231.5,116.5 219.5,116.5C 219.216,114.585 219.549,112.919 220.5,111.5 Z"/></g>
<g><path style="opacity:1" fill="#aa5257" d="M 226.5,96.5 C 225.779,101.332 224.445,105.998 222.5,110.5C 221.508,110.328 220.842,110.662 220.5,111.5C 219.549,112.919 219.216,114.585 219.5,116.5C 231.5,116.5 243.5,116.5 255.5,116.5C 255.5,116.833 255.5,117.167 255.5,117.5C 245.828,117.334 236.161,117.5 226.5,118C 225.756,119.039 224.756,119.539 223.5,119.5C 223.611,118.883 223.944,118.383 224.5,118C 221.964,117.814 219.631,117.314 217.5,116.5C 217.737,115.209 217.404,114.209 216.5,113.5C 217.891,111.429 219.724,109.762 222,108.5C 223.234,104.285 224.734,100.285 226.5,96.5 Z"/></g>
<g><path style="opacity:1" fill="#b87275" d="M 290.5,112.5 C 290.833,114.5 291.167,116.5 291.5,118.5C 289.901,118.232 288.568,118.566 287.5,119.5C 277.09,117.56 266.423,116.893 255.5,117.5C 255.5,117.167 255.5,116.833 255.5,116.5C 266.838,116.667 278.172,116.5 289.5,116C 288.748,115.329 288.414,114.496 288.5,113.5C 289.167,113.167 289.833,112.833 290.5,112.5 Z"/></g>
<g><path style="opacity:1" fill="#e8a9ab" d="M 217.5,116.5 C 219.631,117.314 221.964,117.814 224.5,118C 223.944,118.383 223.611,118.883 223.5,119.5C 221.435,119.517 219.435,119.85 217.5,120.5C 216.646,118.965 216.646,117.632 217.5,116.5 Z"/></g>
<g><path style="opacity:1" fill="#9d393b" d="M 255.5,117.5 C 266.423,116.893 277.09,117.56 287.5,119.5C 288.959,119.433 290.292,119.766 291.5,120.5C 291.389,121.117 291.056,121.617 290.5,122C 288.527,122.495 286.527,122.662 284.5,122.5C 284.167,122.5 283.833,122.5 283.5,122.5C 282.158,121.207 280.491,120.374 278.5,120C 273.511,119.501 268.511,119.334 263.5,119.5C 253.476,119.334 243.476,119.668 233.5,120.5C 230.781,120.397 228.115,120.731 225.5,121.5C 224.287,121.253 223.62,120.586 223.5,119.5C 224.756,119.539 225.756,119.039 226.5,118C 236.161,117.5 245.828,117.334 255.5,117.5 Z"/></g>
<g><path style="opacity:1" fill="#eec7c5" d="M 263.5,119.5 C 263.5,119.833 263.5,120.167 263.5,120.5C 253.482,120.41 243.482,120.743 233.5,121.5C 233.5,121.167 233.5,120.833 233.5,120.5C 243.476,119.668 253.476,119.334 263.5,119.5 Z"/></g>
<g><path style="opacity:1" fill="#a25a5e" d="M 263.5,120.5 C 263.5,120.167 263.5,119.833 263.5,119.5C 268.511,119.334 273.511,119.501 278.5,120C 280.491,120.374 282.158,121.207 283.5,122.5C 276.905,121.179 270.239,120.512 263.5,120.5 Z"/></g>
<g><path style="opacity:1" fill="#fdfaf9" d="M 263.5,120.5 C 270.239,120.512 276.905,121.179 283.5,122.5C 283.833,122.5 284.167,122.5 284.5,122.5C 290.813,124.24 297.146,126.24 303.5,128.5C 303.021,130.844 301.521,132.178 299,132.5C 297.234,131.767 295.401,131.433 293.5,131.5C 287.787,130.272 282.121,128.938 276.5,127.5C 269.412,125.761 262.079,125.094 254.5,125.5C 254.216,127.415 254.549,129.081 255.5,130.5C 256.965,135.353 258.298,140.353 259.5,145.5C 259.41,148.152 260.076,150.485 261.5,152.5C 263.845,162.202 267.178,171.535 271.5,180.5C 264.848,180.71 259.182,183.043 254.5,187.5C 252.167,188.833 249.833,190.167 247.5,191.5C 247.5,190.833 247.167,190.5 246.5,190.5C 240.626,177.529 234.959,164.529 229.5,151.5C 229.5,151.167 229.5,150.833 229.5,150.5C 227.953,143.65 225.953,136.983 223.5,130.5C 223.25,129.078 222.417,128.078 221,127.5C 219.887,128.711 218.72,128.711 217.5,127.5C 216.304,127.846 216.304,128.346 217.5,129C 211.388,130.241 205.721,132.408 200.5,135.5C 199.263,135.444 198.263,134.944 197.5,134C 200.407,132.391 203.073,130.558 205.5,128.5C 209.162,128.277 212.495,127.277 215.5,125.5C 221.28,123.277 227.28,121.944 233.5,121.5C 243.482,120.743 253.482,120.41 263.5,120.5 Z"/></g>
<g><path style="opacity:1" fill="#efccce" d="M 276.5,127.5 C 269.515,126.911 262.515,126.578 255.5,126.5C 255.5,127.833 255.5,129.167 255.5,130.5C 254.549,129.081 254.216,127.415 254.5,125.5C 262.079,125.094 269.412,125.761 276.5,127.5 Z"/></g>
<g><path style="opacity:1" fill="#e6b9be" d="M 215.5,125.5 C 212.495,127.277 209.162,128.277 205.5,128.5C 208.505,126.723 211.838,125.723 215.5,125.5 Z"/></g>
<g><path style="opacity:1" fill="#97393b" d="M 276.5,127.5 C 282.121,128.938 287.787,130.272 293.5,131.5C 293.5,131.833 293.5,132.167 293.5,132.5C 290.15,132.386 286.817,132.053 283.5,131.5C 280.588,131.928 277.755,132.595 275,133.5C 273.833,133.167 272.667,132.833 271.5,132.5C 272.711,131.28 272.711,130.113 271.5,129C 267.514,128.501 263.514,128.334 259.5,128.5C 259.649,129.552 259.483,130.552 259,131.5C 258.111,130.112 257.611,130.278 257.5,132C 261.4,146.33 265.567,160.164 270,173.5C 272.381,174.435 274.881,174.768 277.5,174.5C 277.5,175.5 277.5,176.5 277.5,177.5C 275.833,177.5 274.167,177.5 272.5,177.5C 272.5,178.5 272.5,179.5 272.5,180.5C 273.978,180.238 275.311,180.571 276.5,181.5C 277.605,183.611 279.271,184.945 281.5,185.5C 280.081,186.451 278.415,186.784 276.5,186.5C 276.532,184.381 275.532,183.048 273.5,182.5C 272.833,181.833 272.167,181.167 271.5,180.5C 267.178,171.535 263.845,162.202 261.5,152.5C 261.59,149.848 260.924,147.515 259.5,145.5C 258.298,140.353 256.965,135.353 255.5,130.5C 255.5,129.167 255.5,127.833 255.5,126.5C 262.515,126.578 269.515,126.911 276.5,127.5 Z"/></g>
<g><path style="opacity:1" fill="#933c3e" d="M 291.5,120.5 C 320.725,127.756 345.058,142.756 364.5,165.5C 362.433,164.737 360.766,163.404 359.5,161.5C 358.702,161.957 358.369,162.624 358.5,163.5C 344.244,149.366 327.911,138.199 309.5,130C 307.482,129.495 305.482,128.995 303.5,128.5C 297.146,126.24 290.813,124.24 284.5,122.5C 286.527,122.662 288.527,122.495 290.5,122C 291.056,121.617 291.389,121.117 291.5,120.5 Z"/></g>
<g><path style="opacity:1" fill="#994444" d="M 223.5,130.5 C 225.953,136.983 227.953,143.65 229.5,150.5C 227.87,148.974 227.037,146.974 227,144.5C 226.333,143.167 225.667,143.167 225,144.5C 224.517,143.552 224.351,142.552 224.5,141.5C 223.167,141.5 221.833,141.5 220.5,141.5C 221.007,140.141 222.007,139.141 223.5,138.5C 222.94,136.146 222.273,133.813 221.5,131.5C 218.601,132.642 215.601,133.308 212.5,133.5C 215.799,131.517 219.466,130.517 223.5,130.5 Z"/></g>
<g><path style="opacity:1" fill="#a23234" d="M 293.5,132.5 C 294.678,133.999 296.345,134.999 298.5,135.5C 294.942,137.56 291.275,139.394 287.5,141C 288.5,141.167 289.5,141.333 290.5,141.5C 293.116,140.385 295.616,139.051 298,137.5C 300.185,138.758 302.352,138.758 304.5,137.5C 307.5,138.833 310.5,140.167 313.5,141.5C 314.386,142.325 314.719,143.325 314.5,144.5C 317.932,144.757 321.266,145.424 324.5,146.5C 324.809,149.346 326.475,150.846 329.5,151C 330.701,151.903 331.535,153.069 332,154.5C 333.011,153.663 334.178,153.33 335.5,153.5C 350.697,164.027 362.697,177.36 371.5,193.5C 370.714,195.041 369.714,196.374 368.5,197.5C 351.311,208.364 335.311,220.698 320.5,234.5C 319.609,235.11 318.609,235.443 317.5,235.5C 314.813,235.664 312.146,235.497 309.5,235C 307.636,232.312 305.636,229.812 303.5,227.5C 303.5,227.167 303.5,226.833 303.5,226.5C 303.894,225.033 304.227,223.533 304.5,222C 301.957,218.057 300.29,213.891 299.5,209.5C 295.504,207.365 294.504,204.198 296.5,200C 295.214,198.006 293.88,196.006 292.5,194C 294.349,190.545 293.682,187.879 290.5,186C 287.518,185.502 284.518,185.335 281.5,185.5C 279.271,184.945 277.605,183.611 276.5,181.5C 275.311,180.571 273.978,180.238 272.5,180.5C 272.5,179.5 272.5,178.5 272.5,177.5C 274.167,177.5 275.833,177.5 277.5,177.5C 277.5,176.5 277.5,175.5 277.5,174.5C 274.881,174.768 272.381,174.435 270,173.5C 265.567,160.164 261.4,146.33 257.5,132C 257.611,130.278 258.111,130.112 259,131.5C 259.483,130.552 259.649,129.552 259.5,128.5C 263.514,128.334 267.514,128.501 271.5,129C 272.711,130.113 272.711,131.28 271.5,132.5C 272.667,132.833 273.833,133.167 275,133.5C 277.755,132.595 280.588,131.928 283.5,131.5C 286.817,132.053 290.15,132.386 293.5,132.5 Z"/></g>
<g><path style="opacity:1" fill="#a23234" d="M 220.5,141.5 C 221.833,141.5 223.167,141.5 224.5,141.5C 224.351,142.552 224.517,143.552 225,144.5C 225.667,143.167 226.333,143.167 227,144.5C 227.037,146.974 227.87,148.974 229.5,150.5C 229.5,150.833 229.5,151.167 229.5,151.5C 230.047,160.27 232.713,168.27 237.5,175.5C 238.167,178.833 238.833,182.167 239.5,185.5C 240.167,185.167 240.833,184.833 241.5,184.5C 242.308,186.423 242.808,188.423 243,190.5C 243.333,189.833 243.667,189.167 244,188.5C 244.708,189.381 245.542,190.047 246.5,190.5C 247.167,190.5 247.5,190.833 247.5,191.5C 247.842,192.338 248.508,192.672 249.5,192.5C 248.59,197.031 245.923,199.697 241.5,200.5C 240.833,200.5 240.167,200.5 239.5,200.5C 238.751,198.754 237.417,197.754 235.5,197.5C 233.833,198.167 232.167,198.833 230.5,199.5C 228.429,198.382 226.262,197.382 224,196.5C 222.216,197.309 220.383,197.976 218.5,198.5C 216.5,197.5 214.5,196.5 212.5,195.5C 210.5,196.167 208.5,196.833 206.5,197.5C 202.65,194.506 199.15,194.839 196,198.5C 195.754,201.89 195.254,205.223 194.5,208.5C 192.116,209.011 190.116,210.011 188.5,211.5C 187.833,211.5 187.167,211.5 186.5,211.5C 184.5,211.5 182.5,211.5 180.5,211.5C 169.104,211.637 157.771,210.97 146.5,209.5C 143.287,209.81 140.287,209.477 137.5,208.5C 135.469,208.028 133.802,207.028 132.5,205.5C 138.518,192.115 146.518,180.115 156.5,169.5C 158.044,169.297 159.378,168.63 160.5,167.5C 161.429,168.689 161.762,170.022 161.5,171.5C 163.635,171.853 164.968,171.02 165.5,169C 164.144,167.433 163.477,165.6 163.5,163.5C 165.484,163.383 167.15,164.05 168.5,165.5C 170.923,164.082 172.589,162.082 173.5,159.5C 173.182,158.353 172.516,157.519 171.5,157C 177.35,156.546 183.016,155.379 188.5,153.5C 188.5,152.167 188.5,150.833 188.5,149.5C 187.127,149.657 185.793,149.49 184.5,149C 189.055,144.632 194.389,143.132 200.5,144.5C 200.5,143.167 200.5,141.833 200.5,140.5C 201.873,140.657 203.207,140.49 204.5,140C 204.043,139.586 203.709,139.086 203.5,138.5C 205.316,137.058 207.316,136.558 209.5,137C 206.972,137.998 206.972,138.831 209.5,139.5C 212.97,138.197 216.303,138.531 219.5,140.5C 216.788,141.228 214.121,142.061 211.5,143C 215.033,145.276 218.033,144.776 220.5,141.5 Z"/></g>
<g><path style="opacity:1" fill="#973839" d="M 293.5,132.5 C 308.881,136.857 322.881,143.857 335.5,153.5C 334.178,153.33 333.011,153.663 332,154.5C 331.535,153.069 330.701,151.903 329.5,151C 326.475,150.846 324.809,149.346 324.5,146.5C 321.266,145.424 317.932,144.757 314.5,144.5C 314.719,143.325 314.386,142.325 313.5,141.5C 310.5,140.167 307.5,138.833 304.5,137.5C 302.352,138.758 300.185,138.758 298,137.5C 295.616,139.051 293.116,140.385 290.5,141.5C 289.5,141.333 288.5,141.167 287.5,141C 291.275,139.394 294.942,137.56 298.5,135.5C 296.345,134.999 294.678,133.999 293.5,132.5 Z"/></g>
<g><path style="opacity:1" fill="#d29695" d="M 259.5,145.5 C 260.924,147.515 261.59,149.848 261.5,152.5C 260.076,150.485 259.41,148.152 259.5,145.5 Z"/></g>
<g><path style="opacity:1" fill="#9b3536" d="M 220.5,141.5 C 218.033,144.776 215.033,145.276 211.5,143C 214.121,142.061 216.788,141.228 219.5,140.5C 216.303,138.531 212.97,138.197 209.5,139.5C 206.972,138.831 206.972,137.998 209.5,137C 207.316,136.558 205.316,137.058 203.5,138.5C 203.709,139.086 204.043,139.586 204.5,140C 203.207,140.49 201.873,140.657 200.5,140.5C 200.5,141.833 200.5,143.167 200.5,144.5C 194.389,143.132 189.055,144.632 184.5,149C 185.793,149.49 187.127,149.657 188.5,149.5C 188.5,150.833 188.5,152.167 188.5,153.5C 183.016,155.379 177.35,156.546 171.5,157C 172.516,157.519 173.182,158.353 173.5,159.5C 172.589,162.082 170.923,164.082 168.5,165.5C 167.15,164.05 165.484,163.383 163.5,163.5C 163.477,165.6 164.144,167.433 165.5,169C 164.968,171.02 163.635,171.853 161.5,171.5C 161.762,170.022 161.429,168.689 160.5,167.5C 159.378,168.63 158.044,169.297 156.5,169.5C 171.872,152.475 190.538,140.475 212.5,133.5C 215.601,133.308 218.601,132.642 221.5,131.5C 222.273,133.813 222.94,136.146 223.5,138.5C 222.007,139.141 221.007,140.141 220.5,141.5 Z"/></g>
<g><path style="opacity:1" fill="#fbf0f0" d="M 223.5,130.5 C 219.466,130.517 215.799,131.517 212.5,133.5C 190.538,140.475 171.872,152.475 156.5,169.5C 146.518,180.115 138.518,192.115 132.5,205.5C 132.167,205.5 131.833,205.5 131.5,205.5C 131.586,203.323 132.253,201.323 133.5,199.5C 133.167,198.5 132.5,197.833 131.5,197.5C 130.937,199.709 129.604,201.209 127.5,202C 129.661,203.764 129.828,205.597 128,207.5C 127.667,207.167 127.333,206.833 127,206.5C 126.292,207.381 125.458,208.047 124.5,208.5C 135.015,181.328 152.349,159.494 176.5,143C 185.631,137.101 195.298,132.268 205.5,128.5C 203.073,130.558 200.407,132.391 197.5,134C 198.263,134.944 199.263,135.444 200.5,135.5C 205.721,132.408 211.388,130.241 217.5,129C 216.304,128.346 216.304,127.846 217.5,127.5C 218.72,128.711 219.887,128.711 221,127.5C 222.417,128.078 223.25,129.078 223.5,130.5 Z"/></g>
<g><path style="opacity:0.988" fill="#f8f4f3" d="M 290.5,112.5 C 330.291,122.706 361.624,144.706 384.5,178.5C 384.5,179.167 384.5,179.833 384.5,180.5C 384.973,181.906 385.973,182.573 387.5,182.5C 393.144,194.129 397.977,206.129 402,218.5C 404.079,226.064 405.579,233.731 406.5,241.5C 406.077,243.781 406.744,245.448 408.5,246.5C 410.588,289.903 397.921,328.236 370.5,361.5C 368.833,362.5 367.5,363.833 366.5,365.5C 353.161,379.502 337.828,390.835 320.5,399.5C 317.715,398.916 316.048,399.916 315.5,402.5C 310.903,404.032 306.236,405.365 301.5,406.5C 301.918,405.778 302.584,405.278 303.5,405C 300.787,403.725 297.953,402.891 295,402.5C 290.95,403.956 286.783,404.623 282.5,404.5C 333.205,393.462 368.872,364.129 389.5,316.5C 389.893,314.716 390.559,313.05 391.5,311.5C 393.655,309.383 394.655,306.716 394.5,303.5C 394.232,301.901 394.566,300.568 395.5,299.5C 396.924,297.485 397.59,295.152 397.5,292.5C 397.216,290.585 397.549,288.919 398.5,287.5C 401.394,274.933 402.061,262.266 400.5,249.5C 400.384,246.14 400.051,242.807 399.5,239.5C 399.59,236.848 398.924,234.515 397.5,232.5C 397.5,231.833 397.5,231.167 397.5,230.5C 397.59,227.848 396.924,225.515 395.5,223.5C 395.5,223.167 395.5,222.833 395.5,222.5C 395.277,218.838 394.277,215.505 392.5,212.5C 386.476,194.773 377.143,179.106 364.5,165.5C 345.058,142.756 320.725,127.756 291.5,120.5C 290.292,119.766 288.959,119.433 287.5,119.5C 288.568,118.566 289.901,118.232 291.5,118.5C 291.167,116.5 290.833,114.5 290.5,112.5 Z"/></g>
<g><path style="opacity:1" fill="#fbf1f0" d="M 303.5,128.5 C 305.482,128.995 307.482,129.495 309.5,130C 327.911,138.199 344.244,149.366 358.5,163.5C 365.581,172.004 371.914,181.004 377.5,190.5C 375.41,190.45 374.077,191.45 373.5,193.5C 374.002,194.716 374.335,195.883 374.5,197C 372.5,196.207 370.5,196.374 368.5,197.5C 369.714,196.374 370.714,195.041 371.5,193.5C 362.697,177.36 350.697,164.027 335.5,153.5C 322.881,143.857 308.881,136.857 293.5,132.5C 293.5,132.167 293.5,131.833 293.5,131.5C 295.401,131.433 297.234,131.767 299,132.5C 301.521,132.178 303.021,130.844 303.5,128.5 Z"/></g>
<g><path style="opacity:0.443" fill="#722b28" d="M 497.5,181.5 C 479.346,180.167 460.846,179.5 442,179.5C 422.791,179.512 403.625,179.845 384.5,180.5C 384.5,179.833 384.5,179.167 384.5,178.5C 385.93,178.579 387.264,178.246 388.5,177.5C 425.792,178.327 463.125,178.827 500.5,179C 499.627,180.045 498.627,180.878 497.5,181.5 Z"/></g>
<g><path style="opacity:1" fill="#9e3d3f" d="M 229.5,151.5 C 234.959,164.529 240.626,177.529 246.5,190.5C 245.542,190.047 244.708,189.381 244,188.5C 243.667,189.167 243.333,189.833 243,190.5C 242.808,188.423 242.308,186.423 241.5,184.5C 240.833,184.833 240.167,185.167 239.5,185.5C 238.833,182.167 238.167,178.833 237.5,175.5C 232.713,168.27 230.047,160.27 229.5,151.5 Z"/></g>
<g><path style="opacity:0.704" fill="#873236" d="M 124.5,181.5 C 124.34,183.153 123.674,184.486 122.5,185.5C 89.8333,185.5 57.1667,185.5 24.5,185.5C 56.6692,184.833 89.0026,184.167 121.5,183.5C 103.833,183.167 86.1667,182.833 68.5,182.5C 50.4871,182.5 32.8205,183.167 15.5,184.5C 13.8042,184.315 12.4709,183.481 11.5,182C 49.1652,181.5 86.8319,181.333 124.5,181.5 Z"/></g>
<g><path style="opacity:1" fill="#a17679" d="M 271.5,180.5 C 272.167,181.167 272.833,181.833 273.5,182.5C 266.64,182.345 260.307,184.012 254.5,187.5C 259.182,183.043 264.848,180.71 271.5,180.5 Z"/></g>
<g><path style="opacity:1" fill="#a1363a" d="M 24.5,185.5 C 24.0618,185.435 23.7284,185.601 23.5,186C 25.0931,186.949 26.4264,188.115 27.5,189.5C 27.6309,190.376 27.2975,191.043 26.5,191.5C 25.3777,190.37 24.0443,189.703 22.5,189.5C 19.883,188.214 17.5496,186.547 15.5,184.5C 32.8205,183.167 50.4871,182.5 68.5,182.5C 86.1667,182.833 103.833,183.167 121.5,183.5C 89.0026,184.167 56.6692,184.833 24.5,185.5 Z"/></g>
<g><path style="opacity:1" fill="#fdfbfa" d="M 273.5,182.5 C 275.532,183.048 276.532,184.381 276.5,186.5C 278.415,186.784 280.081,186.451 281.5,185.5C 284.518,185.335 287.518,185.502 290.5,186C 293.682,187.879 294.349,190.545 292.5,194C 293.88,196.006 295.214,198.006 296.5,200C 294.504,204.198 295.504,207.365 299.5,209.5C 299.557,211.884 299.223,214.218 298.5,216.5C 299.278,218.147 300.444,219.48 302,220.5C 302.49,222.545 302.323,224.545 301.5,226.5C 292.427,228.753 283.427,231.086 274.5,233.5C 270.176,233.927 265.842,234.261 261.5,234.5C 257.23,232.851 253.896,230.018 251.5,226C 247.09,225.683 242.757,226.183 238.5,227.5C 238.5,226.167 238.5,224.833 238.5,223.5C 240.899,216.037 241.899,208.371 241.5,200.5C 245.923,199.697 248.59,197.031 249.5,192.5C 251.5,191.167 253.167,189.5 254.5,187.5C 260.307,184.012 266.64,182.345 273.5,182.5 Z"/></g>
<g><path style="opacity:1" fill="#9d6d70" d="M 254.5,187.5 C 253.167,189.5 251.5,191.167 249.5,192.5C 248.508,192.672 247.842,192.338 247.5,191.5C 249.833,190.167 252.167,188.833 254.5,187.5 Z"/></g>
<g><path style="opacity:1" fill="#9a3c3d" d="M 364.5,165.5 C 377.143,179.106 386.476,194.773 392.5,212.5C 392.5,213.833 392.5,215.167 392.5,216.5C 389.882,212.476 389.215,212.809 390.5,217.5C 390.167,217.5 389.833,217.5 389.5,217.5C 386.84,207.852 382.84,198.852 377.5,190.5C 371.914,181.004 365.581,172.004 358.5,163.5C 358.369,162.624 358.702,161.957 359.5,161.5C 360.766,163.404 362.433,164.737 364.5,165.5 Z"/></g>
<g><path style="opacity:1" fill="#fdfaf9" d="M 377.5,190.5 C 382.84,198.852 386.84,207.852 389.5,217.5C 389.5,218.833 389.5,220.167 389.5,221.5C 389.5,223.167 389.5,224.833 389.5,226.5C 388.167,226.5 386.833,226.5 385.5,226.5C 385.157,224.775 384.157,224.275 382.5,225C 379.593,226.609 376.927,228.442 374.5,230.5C 361.628,237.712 349.294,245.712 337.5,254.5C 336.009,247.832 332.343,242.832 326.5,239.5C 324.751,237.484 322.751,235.818 320.5,234.5C 335.311,220.698 351.311,208.364 368.5,197.5C 370.5,196.374 372.5,196.207 374.5,197C 374.335,195.883 374.002,194.716 373.5,193.5C 374.077,191.45 375.41,190.45 377.5,190.5 Z"/></g>
<g><path style="opacity:1" fill="#fdfbfa" d="M 239.5,200.5 C 240.075,202.076 240.408,203.742 240.5,205.5C 239.396,211.458 238.729,217.458 238.5,223.5C 237.108,227.986 235.942,232.653 235,237.5C 233.668,239.66 232.168,241.66 230.5,243.5C 227.593,245.805 224.259,247.138 220.5,247.5C 220.084,252.493 219.751,257.493 219.5,262.5C 218.912,265.61 218.245,268.61 217.5,271.5C 210.5,268.833 203.5,266.167 196.5,263.5C 195.425,262.287 194.759,260.787 194.5,259C 195.237,254.863 195.571,250.697 195.5,246.5C 194.804,242.119 192.471,238.786 188.5,236.5C 185.879,228.181 185.879,219.848 188.5,211.5C 190.116,210.011 192.116,209.011 194.5,208.5C 195.254,205.223 195.754,201.89 196,198.5C 199.15,194.839 202.65,194.506 206.5,197.5C 208.5,196.833 210.5,196.167 212.5,195.5C 214.5,196.5 216.5,197.5 218.5,198.5C 220.383,197.976 222.216,197.309 224,196.5C 226.262,197.382 228.429,198.382 230.5,199.5C 232.167,198.833 233.833,198.167 235.5,197.5C 237.417,197.754 238.751,198.754 239.5,200.5 Z"/></g>
<g><path style="opacity:1" fill="#aa7a7e" d="M 239.5,200.5 C 240.167,200.5 240.833,200.5 241.5,200.5C 241.899,208.371 240.899,216.037 238.5,223.5C 238.729,217.458 239.396,211.458 240.5,205.5C 240.408,203.742 240.075,202.076 239.5,200.5 Z"/></g>
<g><path style="opacity:1" fill="#fdfafa" d="M 131.5,205.5 C 131.5,206.5 131.5,207.5 131.5,208.5C 133.5,208.5 135.5,208.5 137.5,208.5C 140.287,209.477 143.287,209.81 146.5,209.5C 152.28,211.043 158.28,212.043 164.5,212.5C 171.351,213.694 178.351,213.694 185.5,212.5C 185.5,213.5 185.5,214.5 185.5,215.5C 185.5,221.5 185.5,227.5 185.5,233.5C 184.976,236.188 183.309,237.688 180.5,238C 162.495,238.471 144.495,238.305 126.5,237.5C 124.833,237.5 123.167,237.5 121.5,237.5C 121.5,238.833 121.5,240.167 121.5,241.5C 121.425,244.206 121.092,246.873 120.5,249.5C 119.834,253.319 119.501,257.319 119.5,261.5C 119.361,268.065 120.028,274.399 121.5,280.5C 123.578,286.624 124.912,292.957 125.5,299.5C 123.855,302.61 124.355,305.276 127,307.5C 127.182,310.226 127.682,312.893 128.5,315.5C 130.677,316.676 132.011,318.51 132.5,321C 131.333,321.5 130.5,322.333 130,323.5C 129.583,322.244 128.75,321.577 127.5,321.5C 127.573,319.973 126.906,318.973 125.5,318.5C 123.107,310.82 120.607,303.153 118,295.5C 116.202,290.311 115.369,284.978 115.5,279.5C 114.038,264.126 114.371,248.792 116.5,233.5C 117.817,224.582 120.484,216.248 124.5,208.5C 125.458,208.047 126.292,207.381 127,206.5C 127.333,206.833 127.667,207.167 128,207.5C 129.828,205.597 129.661,203.764 127.5,202C 129.604,201.209 130.937,199.709 131.5,197.5C 132.5,197.833 133.167,198.5 133.5,199.5C 132.253,201.323 131.586,203.323 131.5,205.5 Z"/></g>
<g><path style="opacity:1" fill="#a26468" d="M 131.5,205.5 C 131.833,205.5 132.167,205.5 132.5,205.5C 133.802,207.028 135.469,208.028 137.5,208.5C 135.5,208.5 133.5,208.5 131.5,208.5C 131.5,207.5 131.5,206.5 131.5,205.5 Z"/></g>
<g><path style="opacity:0.992" fill="#f9f4f3" d="M 216.5,113.5 C 217.404,114.209 217.737,115.209 217.5,116.5C 216.646,117.632 216.646,118.965 217.5,120.5C 169.591,134.57 136.425,164.903 118,211.5C 109.627,234.067 107.127,257.401 110.5,281.5C 110.768,284.119 110.435,286.619 109.5,289C 111.514,292.536 112.848,296.369 113.5,300.5C 113.167,301.167 112.833,301.833 112.5,302.5C 113.843,305.54 115.176,308.54 116.5,311.5C 116.392,312.442 116.059,313.275 115.5,314C 117.609,315.725 119.609,317.558 121.5,319.5C 122.136,322.106 122.136,324.606 121.5,327C 124.895,329.303 127.562,332.137 129.5,335.5C 143.256,357.256 161.256,374.589 183.5,387.5C 194.814,394.815 207.147,399.982 220.5,403C 241.077,407.069 261.744,407.569 282.5,404.5C 286.783,404.623 290.95,403.956 295,402.5C 297.953,402.891 300.787,403.725 303.5,405C 302.584,405.278 301.918,405.778 301.5,406.5C 265.834,417.719 230.501,416.386 195.5,402.5C 194.599,400.273 192.933,399.273 190.5,399.5C 172.568,391.225 156.901,379.891 143.5,365.5C 142.738,363.738 141.404,362.738 139.5,362.5C 112.389,329.495 100.055,291.495 102.5,248.5C 103.434,247.432 103.768,246.099 103.5,244.5C 105.632,223.439 111.965,203.773 122.5,185.5C 123.674,184.486 124.34,183.153 124.5,181.5C 146.361,146.979 177.028,124.312 216.5,113.5 Z"/></g>
<g><path style="opacity:1" fill="#9d4f53" d="M 146.5,209.5 C 157.771,210.97 169.104,211.637 180.5,211.5C 175.36,212.488 170.026,212.821 164.5,212.5C 158.28,212.043 152.28,211.043 146.5,209.5 Z"/></g>
<g><path style="opacity:1" fill="#edbabc" d="M 180.5,211.5 C 182.5,211.5 184.5,211.5 186.5,211.5C 186.768,213.099 186.434,214.432 185.5,215.5C 185.5,214.5 185.5,213.5 185.5,212.5C 178.351,213.694 171.351,213.694 164.5,212.5C 170.026,212.821 175.36,212.488 180.5,211.5 Z"/></g>
<g><path style="opacity:1" fill="#973639" d="M 497.5,181.5 C 468.049,203.399 438.382,225.066 408.5,246.5C 406.744,245.448 406.077,243.781 406.5,241.5C 407.117,241.611 407.617,241.944 408,242.5C 435.1,223.033 461.934,203.199 488.5,183C 454.835,182.5 421.168,182.333 387.5,182.5C 385.973,182.573 384.973,181.906 384.5,180.5C 403.625,179.845 422.791,179.512 442,179.5C 460.846,179.5 479.346,180.167 497.5,181.5 Z"/></g>
<g><path style="opacity:1" fill="#c58483" d="M 392.5,212.5 C 394.277,215.505 395.277,218.838 395.5,222.5C 394.5,220.5 393.5,218.5 392.5,216.5C 392.5,215.167 392.5,213.833 392.5,212.5 Z"/></g>
<g><path style="opacity:1" fill="#9a3e42" d="M 299.5,209.5 C 300.29,213.891 301.957,218.057 304.5,222C 304.227,223.533 303.894,225.033 303.5,226.5C 302.833,226.5 302.167,226.5 301.5,226.5C 302.323,224.545 302.49,222.545 302,220.5C 300.444,219.48 299.278,218.147 298.5,216.5C 299.223,214.218 299.557,211.884 299.5,209.5 Z"/></g>
<g><path style="opacity:1" fill="#e5b5b8" d="M 389.5,217.5 C 389.833,217.5 390.167,217.5 390.5,217.5C 391.374,220.789 392.041,224.123 392.5,227.5C 391.5,225.5 390.5,223.5 389.5,221.5C 389.5,220.167 389.5,218.833 389.5,217.5 Z"/></g>
<g><path style="opacity:1" fill="#8f6c70" d="M 186.5,211.5 C 187.167,211.5 187.833,211.5 188.5,211.5C 185.879,219.848 185.879,228.181 188.5,236.5C 188.167,236.5 187.833,236.5 187.5,236.5C 187.068,235.29 186.401,234.29 185.5,233.5C 185.5,227.5 185.5,221.5 185.5,215.5C 186.434,214.432 186.768,213.099 186.5,211.5 Z"/></g>
<g><path style="opacity:1" fill="#973738" d="M 392.5,216.5 C 393.5,218.5 394.5,220.5 395.5,222.5C 395.5,222.833 395.5,223.167 395.5,223.5C 395.41,226.152 396.076,228.485 397.5,230.5C 397.5,231.167 397.5,231.833 397.5,232.5C 397.41,235.152 398.076,237.485 399.5,239.5C 400.051,242.807 400.384,246.14 400.5,249.5C 400.68,262.218 400.013,274.885 398.5,287.5C 397.549,288.919 397.216,290.585 397.5,292.5C 396.076,294.515 395.41,296.848 395.5,299.5C 394.566,300.568 394.232,301.901 394.5,303.5C 393.129,305.936 392.129,308.603 391.5,311.5C 390.559,313.05 389.893,314.716 389.5,316.5C 388.25,316.577 387.417,317.244 387,318.5C 386.51,317.207 386.343,315.873 386.5,314.5C 388.462,308.912 390.129,303.246 391.5,297.5C 393.074,295.898 393.741,293.898 393.5,291.5C 394.495,284.87 395.162,278.203 395.5,271.5C 396.658,262.009 396.825,252.342 396,242.5C 395.248,237.271 394.081,232.271 392.5,227.5C 392.041,224.123 391.374,220.789 390.5,217.5C 389.215,212.809 389.882,212.476 392.5,216.5 Z"/></g>
<g><path style="opacity:0.996" fill="#943939" d="M 22.5,189.5 C 24.0443,189.703 25.3777,190.37 26.5,191.5C 27.2975,191.043 27.6309,190.376 27.5,189.5C 52.8516,207.858 78.1849,226.191 103.5,244.5C 103.768,246.099 103.434,247.432 102.5,248.5C 75.247,229.573 48.5803,209.907 22.5,189.5 Z"/></g>
<g><path style="opacity:1" fill="#c07a7e" d="M 395.5,223.5 C 396.924,225.515 397.59,227.848 397.5,230.5C 396.076,228.485 395.41,226.152 395.5,223.5 Z"/></g>
<g><path style="opacity:1" fill="#fdfbfa" d="M 303.5,227.5 C 305.636,229.812 307.636,232.312 309.5,235C 312.146,235.497 314.813,235.664 317.5,235.5C 320.314,237.07 323.314,238.403 326.5,239.5C 331.93,244.362 335.263,250.362 336.5,257.5C 336.047,258.458 335.381,259.292 334.5,260C 336.058,262.052 337.392,264.219 338.5,266.5C 338.785,268.288 338.452,269.955 337.5,271.5C 335.581,272.612 333.914,273.946 332.5,275.5C 331.731,277.667 330.731,279.834 329.5,282C 327.19,282.497 324.857,282.663 322.5,282.5C 322.112,288.05 319.112,290.55 313.5,290C 312.871,292.375 311.871,294.541 310.5,296.5C 308.379,296.675 306.379,296.341 304.5,295.5C 299.522,287.863 294.188,280.53 288.5,273.5C 285.727,269.276 284.06,264.609 283.5,259.5C 283.721,255.725 285.054,252.391 287.5,249.5C 284.498,244.513 281.164,239.847 277.5,235.5C 277.62,234.414 278.287,233.747 279.5,233.5C 285.792,232.118 292.126,230.951 298.5,230C 300.078,228.906 301.745,228.072 303.5,227.5 Z"/></g>
<g><path style="opacity:1" fill="#ae797e" d="M 301.5,226.5 C 302.167,226.5 302.833,226.5 303.5,226.5C 303.5,226.833 303.5,227.167 303.5,227.5C 301.745,228.072 300.078,228.906 298.5,230C 292.126,230.951 285.792,232.118 279.5,233.5C 278.287,233.747 277.62,234.414 277.5,235.5C 276.778,234.449 275.778,233.782 274.5,233.5C 283.427,231.086 292.427,228.753 301.5,226.5 Z"/></g>
<g><path style="opacity:1" fill="#e6b5b4" d="M 392.5,227.5 C 394.081,232.271 395.248,237.271 396,242.5C 396.825,252.342 396.658,262.009 395.5,271.5C 395.666,262.827 395.5,254.16 395,245.5C 393.519,239.581 392.686,233.581 392.5,227.5 Z"/></g>
<g><path style="opacity:1" fill="#9b4142" d="M 385.5,226.5 C 386.659,231.468 387.659,236.468 388.5,241.5C 388.5,244.167 388.5,246.833 388.5,249.5C 387.778,249.082 387.278,248.416 387,247.5C 386.718,240.965 385.718,234.632 384,228.5C 383.586,228.043 383.086,227.709 382.5,227.5C 379.965,228.9 377.298,229.9 374.5,230.5C 376.927,228.442 379.593,226.609 382.5,225C 384.157,224.275 385.157,224.775 385.5,226.5 Z"/></g>
<g><path style="opacity:1" fill="#a23234" d="M 261.5,234.5 C 265.842,234.261 270.176,233.927 274.5,233.5C 275.778,233.782 276.778,234.449 277.5,235.5C 281.164,239.847 284.498,244.513 287.5,249.5C 285.054,252.391 283.721,255.725 283.5,259.5C 284.06,264.609 285.727,269.276 288.5,273.5C 288.167,274.167 287.833,274.833 287.5,275.5C 283.5,280.167 279.5,284.833 275.5,289.5C 269.144,288.149 262.811,288.316 256.5,290C 255.965,292.109 254.965,292.609 253.5,291.5C 248.056,294.617 242.39,294.783 236.5,292C 236.141,289.37 235.141,287.203 233.5,285.5C 232.334,282.497 230.667,279.83 228.5,277.5C 228.586,276.504 228.252,275.671 227.5,275C 224.883,274.178 222.216,273.678 219.5,273.5C 220.683,268.246 221.35,262.912 221.5,257.5C 224.336,257.798 224.836,257.131 223,255.5C 222.333,253.5 222.333,251.5 223,249.5C 223.414,249.957 223.914,250.291 224.5,250.5C 227.037,248.733 229.703,247.233 232.5,246C 232.167,245.667 231.833,245.333 231.5,245C 235.783,240.559 238.116,235.225 238.5,229C 242.864,227.918 247.197,227.751 251.5,228.5C 251.931,229.293 252.265,230.127 252.5,231C 251.387,232.394 250.053,233.561 248.5,234.5C 252.792,235.274 257.125,235.274 261.5,234.5 Z"/></g>
<g><path style="opacity:1" fill="#a06c6f" d="M 320.5,234.5 C 322.751,235.818 324.751,237.484 326.5,239.5C 323.314,238.403 320.314,237.07 317.5,235.5C 318.609,235.443 319.609,235.11 320.5,234.5 Z"/></g>
<g><path style="opacity:1" fill="#a23234" d="M 388.5,249.5 C 388.68,262.218 388.013,274.885 386.5,287.5C 386.634,289.292 386.301,290.958 385.5,292.5C 383.64,297.545 381.474,302.545 379,307.5C 378.503,309.81 378.337,312.143 378.5,314.5C 373.658,325.309 367.658,335.309 360.5,344.5C 359.167,344.5 357.833,344.5 356.5,344.5C 356.5,345.833 356.5,347.167 356.5,348.5C 354.857,348.48 353.524,349.147 352.5,350.5C 351.614,349.675 351.281,348.675 351.5,347.5C 347.898,347.533 344.898,346.199 342.5,343.5C 341.614,342.675 341.281,341.675 341.5,340.5C 340.127,340.657 338.793,340.49 337.5,340C 333.612,337.228 329.612,334.728 325.5,332.5C 317.155,326.993 308.489,321.993 299.5,317.5C 298.791,316.596 297.791,316.263 296.5,316.5C 296.784,314.585 296.451,312.919 295.5,311.5C 294.588,310.262 294.421,308.928 295,307.5C 298.098,303.617 300.932,299.617 303.5,295.5C 303.833,295.5 304.167,295.5 304.5,295.5C 306.379,296.341 308.379,296.675 310.5,296.5C 312.512,297.014 314.512,297.18 316.5,297C 313.895,295.069 313.895,293.236 316.5,291.5C 319.194,294.74 321.861,294.906 324.5,292C 325.167,291.333 325.833,290.667 326.5,290C 326.112,288.399 325.445,286.565 324.5,284.5C 330.058,284.605 333.058,281.938 333.5,276.5C 339.421,276.637 341.421,273.97 339.5,268.5C 339.672,267.508 339.338,266.842 338.5,266.5C 337.392,264.219 336.058,262.052 334.5,260C 335.381,259.292 336.047,258.458 336.5,257.5C 337.404,256.791 337.737,255.791 337.5,254.5C 349.294,245.712 361.628,237.712 374.5,230.5C 377.298,229.9 379.965,228.9 382.5,227.5C 383.086,227.709 383.586,228.043 384,228.5C 385.718,234.632 386.718,240.965 387,247.5C 387.278,248.416 387.778,249.082 388.5,249.5 Z"/></g>
<g><path style="opacity:1" fill="#f2d2d2" d="M 185.5,233.5 C 186.401,234.29 187.068,235.29 187.5,236.5C 187.5,237.167 187.5,237.833 187.5,238.5C 167.186,240.954 146.853,240.954 126.5,238.5C 126.5,238.167 126.5,237.833 126.5,237.5C 144.495,238.305 162.495,238.471 180.5,238C 183.309,237.688 184.976,236.188 185.5,233.5 Z"/></g>
<g><path style="opacity:1" fill="#d39696" d="M 397.5,232.5 C 398.924,234.515 399.59,236.848 399.5,239.5C 398.076,237.485 397.41,235.152 397.5,232.5 Z"/></g>
<g><path style="opacity:1" fill="#d79798" d="M 126.5,237.5 C 126.5,237.833 126.5,238.167 126.5,238.5C 125.167,238.5 123.833,238.5 122.5,238.5C 122.737,239.791 122.404,240.791 121.5,241.5C 121.5,240.167 121.5,238.833 121.5,237.5C 123.167,237.5 124.833,237.5 126.5,237.5 Z"/></g>
<g><path style="opacity:1" fill="#a57479" d="M 326.5,239.5 C 332.343,242.832 336.009,247.832 337.5,254.5C 337.737,255.791 337.404,256.791 336.5,257.5C 335.263,250.362 331.93,244.362 326.5,239.5 Z"/></g>
<g><path style="opacity:1" fill="#a23233" d="M 187.5,238.5 C 188.496,238.414 189.329,238.748 190,239.5C 191.182,241.344 192.349,243.177 193.5,245C 192.753,249.461 192.253,253.961 192,258.5C 191.106,261.133 189.606,263.3 187.5,265C 186.839,267.464 186.339,269.964 186,272.5C 184.951,271.483 183.784,271.316 182.5,272C 186.073,274.132 186.073,275.632 182.5,276.5C 183.758,279.694 184.424,283.027 184.5,286.5C 183.694,287.728 182.694,288.728 181.5,289.5C 180.246,291.357 180.246,293.357 181.5,295.5C 179.082,296.729 178.082,298.729 178.5,301.5C 178.511,303.045 178.844,304.378 179.5,305.5C 179.571,308.139 180.571,310.306 182.5,312C 181.767,313.766 181.433,315.599 181.5,317.5C 177.843,317.12 176.843,318.453 178.5,321.5C 177.388,323.39 176.554,325.39 176,327.5C 174.333,329.167 172.667,330.833 171,332.5C 170.503,335.146 170.336,337.813 170.5,340.5C 169.091,344.316 167.424,347.983 165.5,351.5C 165.167,351.5 164.833,351.5 164.5,351.5C 162.952,351.821 162.285,352.821 162.5,354.5C 161.448,354.649 160.448,354.483 159.5,354C 154.584,348.259 149.584,342.759 144.5,337.5C 143.599,336.71 142.932,335.71 142.5,334.5C 142.579,333.07 142.246,331.736 141.5,330.5C 142.5,329.167 143.5,327.833 144.5,326.5C 143.675,325.614 142.675,325.281 141.5,325.5C 141.5,324.167 141.5,322.833 141.5,321.5C 138.513,321.578 137.847,320.411 139.5,318C 138.278,315.966 137.278,313.8 136.5,311.5C 135.692,313.423 135.192,315.423 135,317.5C 134.581,316.328 133.915,315.328 133,314.5C 128.167,298.834 125.5,282.834 125,266.5C 123.191,263.265 123.191,259.932 125,256.5C 125.216,258.384 125.883,260.051 127,261.5C 127.167,260.5 127.333,259.5 127.5,258.5C 125.203,252.719 124.203,246.719 124.5,240.5C 141.485,241.461 158.485,242.128 175.5,242.5C 175.5,243.5 175.5,244.5 175.5,245.5C 181.655,246.65 185.655,244.317 187.5,238.5 Z"/></g>
<g><path style="opacity:1" fill="#98383b" d="M 238.5,223.5 C 238.5,224.833 238.5,226.167 238.5,227.5C 242.757,226.183 247.09,225.683 251.5,226C 253.896,230.018 257.23,232.851 261.5,234.5C 257.125,235.274 252.792,235.274 248.5,234.5C 250.053,233.561 251.387,232.394 252.5,231C 252.265,230.127 251.931,229.293 251.5,228.5C 247.197,227.751 242.864,227.918 238.5,229C 238.116,235.225 235.783,240.559 231.5,245C 231.833,245.333 232.167,245.667 232.5,246C 229.703,247.233 227.037,248.733 224.5,250.5C 223.914,250.291 223.414,249.957 223,249.5C 222.333,251.5 222.333,253.5 223,255.5C 224.836,257.131 224.336,257.798 221.5,257.5C 221.35,262.912 220.683,268.246 219.5,273.5C 218.508,273.672 217.842,273.338 217.5,272.5C 217.5,272.167 217.5,271.833 217.5,271.5C 218.245,268.61 218.912,265.61 219.5,262.5C 220.801,258.057 221.468,253.391 221.5,248.5C 224.574,248.127 227.574,247.461 230.5,246.5C 230.5,245.5 230.5,244.5 230.5,243.5C 232.168,241.66 233.668,239.66 235,237.5C 235.942,232.653 237.108,227.986 238.5,223.5 Z"/></g>
<g><path style="opacity:1" fill="#a35355" d="M 230.5,243.5 C 230.5,244.5 230.5,245.5 230.5,246.5C 227.574,247.461 224.574,248.127 221.5,248.5C 221.468,253.391 220.801,258.057 219.5,262.5C 219.751,257.493 220.084,252.493 220.5,247.5C 224.259,247.138 227.593,245.805 230.5,243.5 Z"/></g>
<g><path style="opacity:1" fill="#983536" d="M 126.5,238.5 C 146.853,240.954 167.186,240.954 187.5,238.5C 185.655,244.317 181.655,246.65 175.5,245.5C 175.5,244.5 175.5,243.5 175.5,242.5C 158.485,242.128 141.485,241.461 124.5,240.5C 124.203,246.719 125.203,252.719 127.5,258.5C 127.333,259.5 127.167,260.5 127,261.5C 125.883,260.051 125.216,258.384 125,256.5C 123.191,259.932 123.191,263.265 125,266.5C 125.5,282.834 128.167,298.834 133,314.5C 133.915,315.328 134.581,316.328 135,317.5C 135.192,315.423 135.692,313.423 136.5,311.5C 137.278,313.8 138.278,315.966 139.5,318C 137.847,320.411 138.513,321.578 141.5,321.5C 141.5,322.833 141.5,324.167 141.5,325.5C 142.675,325.281 143.675,325.614 144.5,326.5C 143.5,327.833 142.5,329.167 141.5,330.5C 142.246,331.736 142.579,333.07 142.5,334.5C 135.483,323.466 129.816,311.799 125.5,299.5C 124.912,292.957 123.578,286.624 121.5,280.5C 120.774,270.183 120.44,259.85 120.5,249.5C 121.092,246.873 121.425,244.206 121.5,241.5C 122.404,240.791 122.737,239.791 122.5,238.5C 123.833,238.5 125.167,238.5 126.5,238.5 Z"/></g>
<g><path style="opacity:1" fill="#ebc5c5" d="M 116.5,233.5 C 114.371,248.792 114.038,264.126 115.5,279.5C 113.986,273.405 113.32,267.072 113.5,260.5C 113.286,251.223 114.286,242.223 116.5,233.5 Z"/></g>
<g><path style="opacity:1" fill="#fcd5d7" d="M 120.5,249.5 C 120.44,259.85 120.774,270.183 121.5,280.5C 120.028,274.399 119.361,268.065 119.5,261.5C 119.501,257.319 119.834,253.319 120.5,249.5 Z"/></g>
<g><path style="opacity:1" fill="#e7b9b7" d="M 195.5,246.5 C 195.571,250.697 195.237,254.863 194.5,259C 194.759,260.787 195.425,262.287 196.5,263.5C 195.5,263.5 194.5,263.5 193.5,263.5C 193.5,262.5 193.5,261.5 193.5,260.5C 193.362,255.586 194.028,250.919 195.5,246.5 Z"/></g>
<g><path style="opacity:1" fill="#fdfbfa" d="M 192.5,264.5 C 200.961,266.765 209.295,269.432 217.5,272.5C 217.842,273.338 218.508,273.672 219.5,273.5C 222.256,275.204 225.256,276.537 228.5,277.5C 230.667,279.83 232.334,282.497 233.5,285.5C 234.265,288.096 234.599,290.763 234.5,293.5C 239.608,294.89 244.608,296.556 249.5,298.5C 249.046,301.14 247.879,303.473 246,305.5C 241.968,310.361 237.801,315.028 233.5,319.5C 231.784,319.371 230.117,319.038 228.5,318.5C 227.626,317.475 226.459,316.808 225,316.5C 220.437,319.967 215.271,321.967 209.5,322.5C 200.312,321.661 191.979,318.661 184.5,313.5C 184.421,312.07 184.754,310.736 185.5,309.5C 183.216,308.542 181.216,307.208 179.5,305.5C 179.338,303.473 179.505,301.473 180,299.5C 182.811,296.6 183.311,293.267 181.5,289.5C 182.694,288.728 183.694,287.728 184.5,286.5C 185.695,286.134 186.361,285.301 186.5,284C 185.541,281.88 185.374,279.713 186,277.5C 188.048,276.902 189.215,275.569 189.5,273.5C 187.588,269.469 188.588,266.469 192.5,264.5 Z"/></g>
<g><path style="opacity:1" fill="#9d696f" d="M 193.5,260.5 C 193.5,261.5 193.5,262.5 193.5,263.5C 194.5,263.5 195.5,263.5 196.5,263.5C 203.5,266.167 210.5,268.833 217.5,271.5C 217.5,271.833 217.5,272.167 217.5,272.5C 209.295,269.432 200.961,266.765 192.5,264.5C 192.232,262.901 192.566,261.568 193.5,260.5 Z"/></g>
<g><path style="opacity:1" fill="#9b3a3d" d="M 187.5,236.5 C 187.833,236.5 188.167,236.5 188.5,236.5C 192.471,238.786 194.804,242.119 195.5,246.5C 194.028,250.919 193.362,255.586 193.5,260.5C 192.566,261.568 192.232,262.901 192.5,264.5C 188.588,266.469 187.588,269.469 189.5,273.5C 189.215,275.569 188.048,276.902 186,277.5C 185.374,279.713 185.541,281.88 186.5,284C 186.361,285.301 185.695,286.134 184.5,286.5C 184.424,283.027 183.758,279.694 182.5,276.5C 186.073,275.632 186.073,274.132 182.5,272C 183.784,271.316 184.951,271.483 186,272.5C 186.339,269.964 186.839,267.464 187.5,265C 189.606,263.3 191.106,261.133 192,258.5C 192.253,253.961 192.753,249.461 193.5,245C 192.349,243.177 191.182,241.344 190,239.5C 189.329,238.748 188.496,238.414 187.5,238.5C 187.5,237.833 187.5,237.167 187.5,236.5 Z"/></g>
<g><path style="opacity:1" fill="#edcdca" d="M 338.5,266.5 C 339.338,266.842 339.672,267.508 339.5,268.5C 339.5,273.167 337.167,275.5 332.5,275.5C 333.914,273.946 335.581,272.612 337.5,271.5C 338.452,269.955 338.785,268.288 338.5,266.5 Z"/></g>
<g><path style="opacity:1" fill="#964c4a" d="M 219.5,273.5 C 222.216,273.678 224.883,274.178 227.5,275C 228.252,275.671 228.586,276.504 228.5,277.5C 225.256,276.537 222.256,275.204 219.5,273.5 Z"/></g>
<g><path style="opacity:1" fill="#fdfbfa" d="M 287.5,275.5 C 293.159,281.835 298.493,288.501 303.5,295.5C 300.932,299.617 298.098,303.617 295,307.5C 294.421,308.928 294.588,310.262 295.5,311.5C 295.715,321.854 292.715,331.188 286.5,339.5C 283.788,340.99 281.288,340.656 279,338.5C 276.167,341.333 273.333,344.167 270.5,347C 268.833,347.667 267.167,347.667 265.5,347C 264.5,345.333 263.5,343.667 262.5,342C 260.167,341.667 257.833,341.333 255.5,341C 254.876,335.716 251.876,333.383 246.5,334C 244.845,332.556 244.178,330.722 244.5,328.5C 242.143,328.663 239.81,328.497 237.5,328C 236.934,327.005 236.267,326.172 235.5,325.5C 235.5,325.167 235.5,324.833 235.5,324.5C 235.34,322.801 235.506,321.134 236,319.5C 241.654,313.503 246.82,307.17 251.5,300.5C 256.569,291.14 264.236,288.14 274.5,291.5C 275.298,291.043 275.631,290.376 275.5,289.5C 279.5,284.833 283.5,280.167 287.5,275.5 Z"/></g>
<g><path style="opacity:1" fill="#a34c4b" d="M 388.5,241.5 C 389.659,252.993 389.826,264.659 389,276.5C 388.205,280.312 387.371,283.979 386.5,287.5C 388.013,274.885 388.68,262.218 388.5,249.5C 388.5,246.833 388.5,244.167 388.5,241.5 Z"/></g>
<g><path style="opacity:1" fill="#e8b6b8" d="M 400.5,249.5 C 402.061,262.266 401.394,274.933 398.5,287.5C 400.013,274.885 400.68,262.218 400.5,249.5 Z"/></g>
<g><path style="opacity:1" fill="#a27478" d="M 288.5,273.5 C 294.188,280.53 299.522,287.863 304.5,295.5C 304.167,295.5 303.833,295.5 303.5,295.5C 298.493,288.501 293.159,281.835 287.5,275.5C 287.833,274.833 288.167,274.167 288.5,273.5 Z"/></g>
<g><path style="opacity:1" fill="#9a3739" d="M 339.5,268.5 C 341.421,273.97 339.421,276.637 333.5,276.5C 333.058,281.938 330.058,284.605 324.5,284.5C 325.445,286.565 326.112,288.399 326.5,290C 325.833,290.667 325.167,291.333 324.5,292C 321.861,294.906 319.194,294.74 316.5,291.5C 313.895,293.236 313.895,295.069 316.5,297C 314.512,297.18 312.512,297.014 310.5,296.5C 311.871,294.541 312.871,292.375 313.5,290C 319.112,290.55 322.112,288.05 322.5,282.5C 324.857,282.663 327.19,282.497 329.5,282C 330.731,279.834 331.731,277.667 332.5,275.5C 337.167,275.5 339.5,273.167 339.5,268.5 Z"/></g>
<g><path style="opacity:1" fill="#99373a" d="M 233.5,285.5 C 235.141,287.203 236.141,289.37 236.5,292C 242.39,294.783 248.056,294.617 253.5,291.5C 254.965,292.609 255.965,292.109 256.5,290C 262.811,288.316 269.144,288.149 275.5,289.5C 275.631,290.376 275.298,291.043 274.5,291.5C 264.236,288.14 256.569,291.14 251.5,300.5C 250.833,299.833 250.167,299.167 249.5,298.5C 244.608,296.556 239.608,294.89 234.5,293.5C 234.599,290.763 234.265,288.096 233.5,285.5 Z"/></g>
<g><path style="opacity:1" fill="#924649" d="M 181.5,289.5 C 183.311,293.267 182.811,296.6 180,299.5C 179.505,301.473 179.338,303.473 179.5,305.5C 178.844,304.378 178.511,303.045 178.5,301.5C 178.082,298.729 179.082,296.729 181.5,295.5C 180.246,293.357 180.246,291.357 181.5,289.5 Z"/></g>
<g><path style="opacity:1" fill="#d59696" d="M 393.5,291.5 C 393.741,293.898 393.074,295.898 391.5,297.5C 391.259,295.102 391.926,293.102 393.5,291.5 Z"/></g>
<g><path style="opacity:1" fill="#d0a3a3" d="M 397.5,292.5 C 397.59,295.152 396.924,297.485 395.5,299.5C 395.41,296.848 396.076,294.515 397.5,292.5 Z"/></g>
<g><path style="opacity:1" fill="#9e4547" d="M 385.5,292.5 C 384.34,300.309 382.007,307.642 378.5,314.5C 378.337,312.143 378.503,309.81 379,307.5C 381.474,302.545 383.64,297.545 385.5,292.5 Z"/></g>
<g><path style="opacity:1" fill="#e0aeac" d="M 394.5,303.5 C 394.655,306.716 393.655,309.383 391.5,311.5C 392.129,308.603 393.129,305.936 394.5,303.5 Z"/></g>
<g><path style="opacity:1" fill="#f9e5e8" d="M 110.5,281.5 C 112.899,294.383 116.566,307.049 121.5,319.5C 119.609,317.558 117.609,315.725 115.5,314C 116.059,313.275 116.392,312.442 116.5,311.5C 115.176,308.54 113.843,305.54 112.5,302.5C 112.833,301.833 113.167,301.167 113.5,300.5C 112.848,296.369 111.514,292.536 109.5,289C 110.435,286.619 110.768,284.119 110.5,281.5 Z"/></g>
<g><path style="opacity:1" fill="#9e6d72" d="M 249.5,298.5 C 250.167,299.167 250.833,299.833 251.5,300.5C 246.82,307.17 241.654,313.503 236,319.5C 235.506,321.134 235.34,322.801 235.5,324.5C 234.691,322.972 234.024,321.306 233.5,319.5C 237.801,315.028 241.968,310.361 246,305.5C 247.879,303.473 249.046,301.14 249.5,298.5 Z"/></g>
<g><path style="opacity:1" fill="#9e6c71" d="M 184.5,313.5 C 191.979,318.661 200.312,321.661 209.5,322.5C 209.737,323.791 209.404,324.791 208.5,325.5C 203.437,323.643 198.103,321.81 192.5,320C 189.244,318.884 186.578,317.051 184.5,314.5C 184.5,314.167 184.5,313.833 184.5,313.5 Z"/></g>
<g><path style="opacity:1" fill="#fcf7f7" d="M 389.5,221.5 C 390.5,223.5 391.5,225.5 392.5,227.5C 392.686,233.581 393.519,239.581 395,245.5C 395.5,254.16 395.666,262.827 395.5,271.5C 395.162,278.203 394.495,284.87 393.5,291.5C 391.926,293.102 391.259,295.102 391.5,297.5C 390.129,303.246 388.462,308.912 386.5,314.5C 367.253,357.401 334.92,385.401 289.5,398.5C 283.963,399.087 278.63,400.087 273.5,401.5C 242.706,405.407 213.706,400.073 186.5,385.5C 179.58,381.255 172.913,376.588 166.5,371.5C 165.227,367.303 162.727,363.97 159,361.5C 158.667,361.833 158.333,362.167 158,362.5C 154.053,356.042 155.053,355.042 161,359.5C 163.672,358.882 165.506,357.216 166.5,354.5C 165.873,353.583 165.539,352.583 165.5,351.5C 167.424,347.983 169.091,344.316 170.5,340.5C 175.602,332.065 180.269,323.399 184.5,314.5C 186.578,317.051 189.244,318.884 192.5,320C 198.103,321.81 203.437,323.643 208.5,325.5C 206.785,331.264 204.785,336.93 202.5,342.5C 201.559,344.05 200.893,345.716 200.5,347.5C 195.797,356.774 191.463,366.274 187.5,376C 187.684,377.376 188.351,378.209 189.5,378.5C 203.32,386.899 218.32,392.232 234.5,394.5C 240.092,395.993 245.926,396.659 252,396.5C 256.015,396.499 259.849,396.165 263.5,395.5C 286.802,393.968 308.302,386.968 328,374.5C 328.688,373.668 328.521,373.002 327.5,372.5C 321.019,367.187 314.686,361.687 308.5,356C 303.208,351.528 297.541,347.695 291.5,344.5C 290.564,343.026 289.23,342.026 287.5,341.5C 292.095,333.643 296.095,325.643 299.5,317.5C 308.489,321.993 317.155,326.993 325.5,332.5C 333.92,339.223 342.586,345.723 351.5,352C 352.5,352.667 353.5,352.667 354.5,352C 356.629,349.561 358.629,347.061 360.5,344.5C 367.658,335.309 373.658,325.309 378.5,314.5C 382.007,307.642 384.34,300.309 385.5,292.5C 386.301,290.958 386.634,289.292 386.5,287.5C 387.371,283.979 388.205,280.312 389,276.5C 389.826,264.659 389.659,252.993 388.5,241.5C 387.659,236.468 386.659,231.468 385.5,226.5C 386.833,226.5 388.167,226.5 389.5,226.5C 389.5,224.833 389.5,223.167 389.5,221.5 Z"/></g>
<g><path style="opacity:1" fill="#ce9c93" d="M 125.5,318.5 C 126.906,318.973 127.573,319.973 127.5,321.5C 126.094,321.027 125.427,320.027 125.5,318.5 Z"/></g>
<g><path style="opacity:1" fill="#943b3c" d="M 179.5,305.5 C 181.216,307.208 183.216,308.542 185.5,309.5C 184.754,310.736 184.421,312.07 184.5,313.5C 184.5,313.833 184.5,314.167 184.5,314.5C 180.269,323.399 175.602,332.065 170.5,340.5C 170.336,337.813 170.503,335.146 171,332.5C 172.667,330.833 174.333,329.167 176,327.5C 176.554,325.39 177.388,323.39 178.5,321.5C 176.843,318.453 177.843,317.12 181.5,317.5C 181.433,315.599 181.767,313.766 182.5,312C 180.571,310.306 179.571,308.139 179.5,305.5 Z"/></g>
<g><path style="opacity:1" fill="#f3dbd9" d="M 121.5,319.5 C 124.35,324.702 127.017,330.035 129.5,335.5C 127.562,332.137 124.895,329.303 121.5,327C 122.136,324.606 122.136,322.106 121.5,319.5 Z"/></g>
<g><path style="opacity:1" fill="#923d3d" d="M 223.5,119.5 C 223.62,120.586 224.287,121.253 225.5,121.5C 228.115,120.731 230.781,120.397 233.5,120.5C 233.5,120.833 233.5,121.167 233.5,121.5C 227.28,121.944 221.28,123.277 215.5,125.5C 211.838,125.723 208.505,126.723 205.5,128.5C 195.298,132.268 185.631,137.101 176.5,143C 152.349,159.494 135.015,181.328 124.5,208.5C 120.484,216.248 117.817,224.582 116.5,233.5C 114.286,242.223 113.286,251.223 113.5,260.5C 113.32,267.072 113.986,273.405 115.5,279.5C 115.369,284.978 116.202,290.311 118,295.5C 120.607,303.153 123.107,310.82 125.5,318.5C 125.427,320.027 126.094,321.027 127.5,321.5C 136.672,341.188 149.672,357.855 166.5,371.5C 172.913,376.588 179.58,381.255 186.5,385.5C 185.127,385.343 183.793,385.51 182.5,386C 183.056,386.383 183.389,386.883 183.5,387.5C 161.256,374.589 143.256,357.256 129.5,335.5C 127.017,330.035 124.35,324.702 121.5,319.5C 116.566,307.049 112.899,294.383 110.5,281.5C 107.127,257.401 109.627,234.067 118,211.5C 136.425,164.903 169.591,134.57 217.5,120.5C 219.435,119.85 221.435,119.517 223.5,119.5 Z"/></g>
<g><path style="opacity:1" fill="#943a3b" d="M 228.5,318.5 C 222.718,320.897 216.718,322.897 210.5,324.5C 209.562,331.061 206.896,337.061 202.5,342.5C 204.785,336.93 206.785,331.264 208.5,325.5C 209.404,324.791 209.737,323.791 209.5,322.5C 215.271,321.967 220.437,319.967 225,316.5C 226.459,316.808 227.626,317.475 228.5,318.5 Z"/></g>
<g><path style="opacity:1" fill="#a23234" d="M 228.5,318.5 C 230.117,319.038 231.784,319.371 233.5,319.5C 234.024,321.306 234.691,322.972 235.5,324.5C 235.5,324.833 235.5,325.167 235.5,325.5C 235.5,326.833 235.5,328.167 235.5,329.5C 237.857,329.337 240.19,329.503 242.5,330C 243.094,335.421 246.094,337.588 251.5,336.5C 251.343,337.873 251.51,339.207 252,340.5C 254.75,342.718 257.917,344.051 261.5,344.5C 260.018,346.71 260.518,348.376 263,349.5C 266.135,348.201 269.301,348.201 272.5,349.5C 273.557,347.151 275.057,345.151 277,343.5C 280.923,352.97 282.423,352.637 281.5,342.5C 284.932,342.757 288.266,343.424 291.5,344.5C 297.541,347.695 303.208,351.528 308.5,356C 314.686,361.687 321.019,367.187 327.5,372.5C 328.521,373.002 328.688,373.668 328,374.5C 308.302,386.968 286.802,393.968 263.5,395.5C 253.815,395.578 244.148,395.245 234.5,394.5C 218.32,392.232 203.32,386.899 189.5,378.5C 188.588,377.262 188.421,375.928 189,374.5C 190.494,375.747 191.994,375.747 193.5,374.5C 192.5,373.833 191.5,373.167 190.5,372.5C 194.756,364.353 198.089,356.02 200.5,347.5C 200.893,345.716 201.559,344.05 202.5,342.5C 206.896,337.061 209.562,331.061 210.5,324.5C 216.718,322.897 222.718,320.897 228.5,318.5 Z"/></g>
<g><path style="opacity:1" fill="#ad7e81" d="M 295.5,311.5 C 296.451,312.919 296.784,314.585 296.5,316.5C 297.791,316.263 298.791,316.596 299.5,317.5C 296.095,325.643 292.095,333.643 287.5,341.5C 286.662,341.158 286.328,340.492 286.5,339.5C 292.715,331.188 295.715,321.854 295.5,311.5 Z"/></g>
<g><path style="opacity:1" fill="#8f3e40" d="M 144.5,337.5 C 149.584,342.759 154.584,348.259 159.5,354C 160.448,354.483 161.448,354.649 162.5,354.5C 162.285,352.821 162.952,351.821 164.5,351.5C 164.177,354.402 162.844,356.235 160.5,357C 154.576,350.917 149.243,344.417 144.5,337.5 Z"/></g>
<g><path style="opacity:1" fill="#973d3e" d="M 325.5,332.5 C 329.612,334.728 333.612,337.228 337.5,340C 338.793,340.49 340.127,340.657 341.5,340.5C 341.281,341.675 341.614,342.675 342.5,343.5C 344.898,346.199 347.898,347.533 351.5,347.5C 351.281,348.675 351.614,349.675 352.5,350.5C 353.524,349.147 354.857,348.48 356.5,348.5C 356.5,347.167 356.5,345.833 356.5,344.5C 357.833,344.5 359.167,344.5 360.5,344.5C 358.629,347.061 356.629,349.561 354.5,352C 353.5,352.667 352.5,352.667 351.5,352C 342.586,345.723 333.92,339.223 325.5,332.5 Z"/></g>
<g><path style="opacity:1" fill="#9a393c" d="M 235.5,325.5 C 236.267,326.172 236.934,327.005 237.5,328C 239.81,328.497 242.143,328.663 244.5,328.5C 244.178,330.722 244.845,332.556 246.5,334C 251.876,333.383 254.876,335.716 255.5,341C 257.833,341.333 260.167,341.667 262.5,342C 263.5,343.667 264.5,345.333 265.5,347C 267.167,347.667 268.833,347.667 270.5,347C 273.333,344.167 276.167,341.333 279,338.5C 281.288,340.656 283.788,340.99 286.5,339.5C 286.328,340.492 286.662,341.158 287.5,341.5C 289.23,342.026 290.564,343.026 291.5,344.5C 288.266,343.424 284.932,342.757 281.5,342.5C 282.423,352.637 280.923,352.97 277,343.5C 275.057,345.151 273.557,347.151 272.5,349.5C 269.301,348.201 266.135,348.201 263,349.5C 260.518,348.376 260.018,346.71 261.5,344.5C 257.917,344.051 254.75,342.718 252,340.5C 251.51,339.207 251.343,337.873 251.5,336.5C 246.094,337.588 243.094,335.421 242.5,330C 240.19,329.503 237.857,329.337 235.5,329.5C 235.5,328.167 235.5,326.833 235.5,325.5 Z"/></g>
<g><path style="opacity:1" fill="#faefef" d="M 125.5,299.5 C 129.816,311.799 135.483,323.466 142.5,334.5C 142.932,335.71 143.599,336.71 144.5,337.5C 149.243,344.417 154.576,350.917 160.5,357C 162.844,356.235 164.177,354.402 164.5,351.5C 164.833,351.5 165.167,351.5 165.5,351.5C 165.539,352.583 165.873,353.583 166.5,354.5C 165.506,357.216 163.672,358.882 161,359.5C 155.053,355.042 154.053,356.042 158,362.5C 158.333,362.167 158.667,361.833 159,361.5C 162.727,363.97 165.227,367.303 166.5,371.5C 149.672,357.855 136.672,341.188 127.5,321.5C 128.75,321.577 129.583,322.244 130,323.5C 130.5,322.333 131.333,321.5 132.5,321C 132.011,318.51 130.677,316.676 128.5,315.5C 127.682,312.893 127.182,310.226 127,307.5C 124.355,305.276 123.855,302.61 125.5,299.5 Z"/></g>
<g><path style="opacity:1" fill="#9f4345" d="M 200.5,347.5 C 198.089,356.02 194.756,364.353 190.5,372.5C 191.5,373.167 192.5,373.833 193.5,374.5C 191.994,375.747 190.494,375.747 189,374.5C 188.421,375.928 188.588,377.262 189.5,378.5C 188.351,378.209 187.684,377.376 187.5,376C 191.463,366.274 195.797,356.774 200.5,347.5 Z"/></g>
<g><path style="opacity:1" fill="#983b3c" d="M 386.5,314.5 C 386.343,315.873 386.51,317.207 387,318.5C 387.417,317.244 388.25,316.577 389.5,316.5C 368.872,364.129 333.205,393.462 282.5,404.5C 261.744,407.569 241.077,407.069 220.5,403C 207.147,399.982 194.814,394.815 183.5,387.5C 183.389,386.883 183.056,386.383 182.5,386C 183.793,385.51 185.127,385.343 186.5,385.5C 213.706,400.073 242.706,405.407 273.5,401.5C 279.216,401.773 284.549,400.773 289.5,398.5C 334.92,385.401 367.253,357.401 386.5,314.5 Z"/></g>
<g><path style="opacity:1" fill="#ad6665" d="M 289.5,398.5 C 284.549,400.773 279.216,401.773 273.5,401.5C 278.63,400.087 283.963,399.087 289.5,398.5 Z"/></g>
<g><path style="opacity:1" fill="#d1a4a1" d="M 234.5,394.5 C 244.148,395.245 253.815,395.578 263.5,395.5C 259.849,396.165 256.015,396.499 252,396.5C 245.926,396.659 240.092,395.993 234.5,394.5 Z"/></g>
<g><path style="opacity:0.912" fill="#953436" d="M 370.5,361.5 C 379.534,386.933 388.2,412.6 396.5,438.5C 395.034,437.653 394.2,436.32 394,434.5C 393.346,433.304 392.846,433.304 392.5,434.5C 393.915,438.409 394.915,442.409 395.5,446.5C 386.236,420.209 377.236,393.709 368.5,367C 368.164,365.97 367.497,365.47 366.5,365.5C 367.5,363.833 368.833,362.5 370.5,361.5 Z"/></g>
<g><path style="opacity:1" fill="#913738" d="M 139.5,362.5 C 141.404,362.738 142.738,363.738 143.5,365.5C 133.217,395.645 123.717,425.978 115,456.5C 139.902,437.966 165.068,419.799 190.5,402C 191.598,401.23 191.598,400.397 190.5,399.5C 192.933,399.273 194.599,400.273 195.5,402.5C 166.821,423.83 137.821,444.83 108.5,465.5C 108.167,465 107.833,464.5 107.5,464C 118.487,430.207 129.154,396.374 139.5,362.5 Z"/></g>
<g><path style="opacity:0.957" fill="#993437" d="M 320.5,399.5 C 324.168,403.201 328.168,406.701 332.5,410C 353.676,424.755 374.676,439.755 395.5,455C 396.483,455.591 397.15,455.257 397.5,454C 396.852,452.56 396.519,451.06 396.5,449.5C 397.497,449.53 398.164,449.03 398.5,448C 397.313,445.276 396.647,442.443 396.5,439.5C 399.667,447.659 402.667,455.992 405.5,464.5C 404.635,465.583 403.635,465.749 402.5,465C 373.621,443.948 344.621,423.115 315.5,402.5C 316.048,399.916 317.715,398.916 320.5,399.5 Z"/></g>
<g><path style="opacity:0.991" fill="#a93433" d="M 396.5,438.5 C 396.5,438.833 396.5,439.167 396.5,439.5C 396.647,442.443 397.313,445.276 398.5,448C 398.164,449.03 397.497,449.53 396.5,449.5C 395.596,448.791 395.263,447.791 395.5,446.5C 394.915,442.409 393.915,438.409 392.5,434.5C 392.846,433.304 393.346,433.304 394,434.5C 394.2,436.32 395.034,437.653 396.5,438.5 Z"/></g>
</svg>
